<?xml version="1.0" encoding="UTF-8"?>
<!-- My Brand New Logo (1.0.122), id: n03Qojxp3GIYWA4JmOlg (1.2.0), date: 2022-03-30 20:19 -->
<svg version="1.1" preserveAspectRatio="xMidYMid meet" xmlns="http://www.w3.org/2000/svg" xmlns:xlink="http://www.w3.org/1999/xlink" viewBox="-388.889 0 1777.778 1000" width="1280" height="720">
	<defs>
		<g id="def-1" transform="matrix(0.004, 0, 0, 0.004, 38.882, 366.754)" fill="#fff" stroke="none" stroke-width="1">
			<g transform="translate(0, 0)">
				<g></g>
				<defs></defs>
				<g>
					<path fill="#fff" d=" M20275 45099 c70,422 166,805 312,1167 162,402 386,785 702,1147 272,311 519,405 748,320 -137,-788 -195,-1586 -195,-2404 -657,-111 -1118,-184 -1567,-230 z m-735 -119 c-1027,-181 -1705,-206 -2387,-257 -992,-74 -1890,-182 -2527,-604 -687,-455 -1040,-1218 -835,-2564 3,-17 6,-33 11,-49 l0 0 c76,-256 199,-509 356,-750 364,-556 923,-1059 1517,-1386 624,-343 1302,-497 1868,-330 138,41 269,100 390,179 349,229 335,535 106,884 -190,290 -573,623 -944,945 -158,137 -314,273 -451,403 -116,110 -190,215 -226,311 -26,67 -32,128 -22,181 9,47 34,92 72,132 44,47 105,86 178,114 30,11 582,27 1437,82 439,28 940,60 1460,93 223,-915 563,-1731 1083,-2199 447,-402 684,-224 320,-602 -375,-390 -776,-882 -1143,-1080 -467,-253 -965,-390 -1501,-504 -136,44 -291,5 -389,-111 -476,-561 -1012,-1041 -1672,-1349 -655,-305 -1443,-443 -2430,-326 -148,18 -287,-57 -357,-178 -484,-317 -993,-627 -1562,-824 -485,-168 -1026,-258 -1654,-207 138,296 188,631 154,972 -51,513 -294,1041 -717,1464 -423,423 -951,666 -1464,717 -538,54 -1059,-102 -1437,-479 -377,-377 -532,-899 -479,-1437 51,-513 294,-1041 717,-1464 423,-423 951,-666 1464,-717 327,-33 649,12 935,137 67,-629 12,-1143 -124,-1600 -169,-566 -467,-1060 -812,-1578 -110,-166 56,-629 50,-944 -9,-499 -82,-988 -254,-1459 -192,-527 -512,-1039 -1008,-1529 -191,-188 -610,-399 -665,-511 -18,-37 -29,-75 -34,-113 -122,-595 -263,-1210 -544,-1789 -224,-461 -542,-907 -1021,-1314 -112,307 -313,579 -579,797 -398,326 -944,527 -1543,527 -599,0 -1145,-201 -1543,-527 -418,-342 -677,-821 -677,-1355 0,-534 259,-1013 677,-1355 398,-326 944,-527 1543,-527 599,0 1145,201 1543,527 255,208 450,467 564,759 493,-397 817,-800 1043,-1218 279,-515 417,-1068 539,-1668 12,-86 54,-167 125,-228 561,-476 1041,-1012 1349,-1672 304,-653 442,-1438 328,-2421 -7,-50 -4,-102 11,-154 l0 0 c2,-6 3,-11 5,-17 13,-37 31,-70 53,-100 337,-511 675,-1048 884,-1653 168,-485 258,-1026 207,-1654 -296,138 -631,188 -972,154 -513,-51 -1041,-294 -1464,-717 -423,-423 -666,-951 -717,-1464 -54,-538 102,-1059 479,-1437 377,-377 899,-532 1437,-479 513,51 1041,294 1464,717 423,423 666,951 717,1464 33,327 -12,649 -137,935 629,67 1143,12 1600,-124 560,-167 1049,-460 1561,-800 69,-52 156,-79 248,-72 736,61 1455,21 2137,-228 675,-246 1327,-703 1940,-1478 34,-46 79,-85 134,-112 37,-18 75,-29 113,-34 595,-122 1210,-263 1789,-544 461,-224 907,-542 1314,-1021 -307,-112 -579,-313 -797,-579 -326,-398 -527,-944 -527,-1543 0,-599 201,-1145 527,-1543 342,-418 821,-677 1355,-677 534,0 1013,259 1355,677 326,398 527,944 527,1543 0,599 -201,1145 -527,1543 -208,255 -467,450 -759,564 397,493 800,817 1218,1043 521,282 1081,421 1689,543 136,27 239,127 276,251 463,537 978,978 1609,1256 647,286 1427,406 2414,290 50,-7 102,-4 154,11 l0 0 c6,2 11,3 17,5 37,13 70,31 100,53 511,337 1048,675 1653,884 485,168 1026,258 1654,207 -138,-296 -188,-631 -154,-972 51,-513 294,-1041 717,-1464 423,-423 951,-666 1464,-717 538,-54 1059,102 1437,479 377,377 532,899 479,1437 -51,513 -294,1041 -717,1464 -423,423 -951,666 -1464,717 -327,33 -649,-12 -935,-137 -67,629 -12,1143 124,1600 169,566 467,1060 812,1578 78,117 78,263 15,378 5,28 6,58 3,88 -60,729 -12,1387 243,2006 255,620 724,1220 1505,1837 46,34 85,79 112,134 18,37 29,75 34,113 122,595 263,1210 544,1789 224,461 542,907 1021,1314 112,-307 313,-579 579,-797 398,-326 944,-527 1543,-527 599,0 1145,201 1543,527 418,342 677,821 677,1355 0,534 -259,1013 -677,1355 -398,326 -944,527 -1543,527 -599,0 -1145,-201 -1543,-527 -255,-208 -450,-467 -564,-759 -493,397 -817,800 -1043,1218 -282,521 -421,1081 -543,1689 -19,97 -76,178 -152,229 -554,472 -1027,1004 -1331,1657 -294,633 -433,1388 -338,2328 32,79 37,169 7,256 -13,37 -31,70 -53,100 -337,511 -675,1048 -884,1653 -168,485 -258,1026 -207,1654 296,-138 631,-188 972,-154 513,51 1041,294 1464,717 423,423 666,951 717,1464 54,538 -102,1059 -479,1437 -377,377 -899,532 -1437,479 -513,-51 -1041,-294 -1464,-717 -423,-423 -666,-951 -717,-1464 -33,-327 12,-649 137,-935 -629,-67 -1143,-12 -1600,124 -566,169 -1060,467 -1578,812 -100,66 -221,77 -326,38 -713,-53 -1411,-9 -2073,233 -642,234 -1263,658 -1850,1366 -25,101 -93,191 -194,241 -37,18 -75,29 -113,34 -595,122 -1210,263 -1789,544 -438,213 -863,511 -1249,967 -388,457 229,359 860,794 660,456 1153,1183 1362,2095 35,155 62,315 81,480 l7688 1169 c150,-480 328,-886 516,-1176 266,-412 582,-627 918,-576 24,4 47,9 69,15 2413,592 4824,1158 7251,1602 2431,444 4885,769 7387,878 1188,52 2522,150 3835,327 1802,244 3570,638 4884,1270 1406,676 2310,1627 2252,2957 -4,85 -11,170 -23,254 l-2 12 0 0 c-14,85 -32,168 -54,250 -340,1286 -1486,1925 -3030,2152 -1442,213 -3247,63 -5041,-240 -1307,-221 -2610,-524 -3759,-828 -2400,-634 -4815,-1052 -7240,-1350 -2420,-297 -4869,-475 -7329,-627 -23,-1 -45,-5 -67,-10 -49,4 -98,3 -147,-4 -338,-51 -576,-355 -708,-833 -89,-324 -138,-749 -140,-1233 l-7755 -1136 c-387,1087 -779,1883 -1205,2338 l-6 7 c361,1671 1119,3281 2401,4725 1716,1934 4377,3581 8287,4704 193,55 305,256 250,450 -55,193 -256,305 -450,250 -4053,-1163 -6827,-2889 -8632,-4923 -1297,-1461 -2091,-3076 -2500,-4754 -460,161 -942,-16 -1452,-601 -374,-429 -639,-880 -830,-1354 -189,-469 -296,-1001 -373,-1556 z m3054 459 c-20,543 9,1076 75,1605 214,-363 438,-881 651,-1499 l-398 -67 c-108,-17 -211,-33 -328,-39 z m6464 -35145 c-873,34 -1603,-112 -2235,-391 -614,-271 -1128,-665 -1587,-1140 l-1957 4051 c460,180 739,454 739,790 0,369 -336,663 -878,840 -20,7 -41,13 -61,19 15,40 23,83 23,129 0,1687 -138,3219 -360,4331 -254,1271 -677,2058 -1209,2058 -532,0 -955,-786 -1209,-2058 -222,-1112 -360,-2644 -360,-4331 0,-42 7,-82 20,-119 -32,-9 -63,-19 -93,-29 -543,-177 -878,-471 -878,-840 0,-369 336,-663 878,-840 28,-9 58,-18 87,-27 l-1951 -3995 c-601,641 -1239,1048 -1902,1289 -620,226 -1254,305 -1894,297 l1461 4192 c422,-168 784,-159 1009,66 261,261 231,705 -27,1214 -9,18 -19,37 -29,55 38,18 73,42 104,73 1193,1193 2179,2374 2808,3317 719,1079 976,1934 600,2310 -376,376 -1231,119 -2310,-600 -944,-629 -2124,-1615 -3317,-2808 -28,-28 -51,-60 -68,-94 -30,16 -59,32 -88,46 -508,258 -953,287 -1214,27 -261,-261 -231,-705 27,-1214 10,-20 21,-41 32,-61 l-4088 -1405 c29,879 -135,1617 -432,2256 -278,597 -671,1101 -1131,1550 l3889 1879 c180,-422 444,-674 764,-674 369,0 663,336 840,878 6,17 11,35 17,53 39,-14 81,-22 125,-22 1687,0 3219,138 4331,360 1271,254 2058,677 2058,1209 0,532 -786,955 -2058,1209 -1112,222 -2644,360 -4331,360 -39,0 -76,-6 -111,-17 -10,33 -20,66 -30,97 -177,543 -471,878 -840,878 -361,0 -651,-323 -829,-846 l-3730 1822 c642,602 1049,1242 1292,1907 227,622 308,1257 300,1899 l3924 -1368 c-207,-461 -214,-860 27,-1102 261,-261 705,-231 1214,27 16,8 32,16 48,25 18,-39 42,-75 74,-107 1193,-1193 2374,-2179 3317,-2808 1079,-719 1934,-976 2310,-600 376,376 119,1231 -600,2310 -629,944 -1615,2124 -2808,3317 -28,28 -59,50 -92,67 18,32 35,64 51,96 258,508 287,953 27,1214 -237,237 -626,234 -1076,38 l-1399 4070 c889,-32 1634,132 2279,432 589,274 1087,659 1530,1111 l1871 -3872 c-540,-177 -874,-471 -874,-839 0,-369 336,-663 878,-840 16,-5 33,-11 50,-16 -16,-41 -25,-86 -25,-132 0,-1687 138,-3219 360,-4331 254,-1271 677,-2058 1209,-2058 532,0 955,786 1209,2058 222,1112 360,2644 360,4331 0,40 -7,79 -19,116 36,10 71,21 105,32 543,177 878,471 878,840 0,319 -252,582 -671,762 l1892 3874 c597,-632 1230,-1034 1887,-1273 628,-229 1270,-307 1919,-297 l-1433 -4112 c-23,12 -46,24 -69,36 -508,258 -953,287 -1214,27 -261,-261 -231,-705 27,-1214 9,-17 17,-34 26,-51 -42,-18 -81,-44 -115,-78 -1193,-1193 -2179,-2374 -2808,-3317 -719,-1079 -976,-1934 -600,-2310 376,-376 1231,-119 2310,600 944,629 2124,1615 3317,2808 30,30 54,64 71,100 33,-18 66,-36 99,-52 508,-258 953,-287 1214,-27 230,230 234,602 56,1035 l4212 1448 c-27,-874 137,-1608 433,-2244 280,-601 676,-1108 1140,-1559 l-4041 -1952 c-7,22 -13,43 -20,64 -177,543 -471,878 -840,878 -369,0 -663,-336 -840,-878 -6,-19 -12,-38 -18,-58 -42,17 -88,26 -136,26 -1687,0 -3219,-138 -4331,-360 -1271,-254 -2058,-677 -2058,-1209 0,-532 786,-955 2058,-1209 1112,-222 2644,-360 4331,-360 43,0 85,8 123,21 10,-35 21,-69 31,-102 177,-543 471,-878 840,-878 347,0 629,298 808,787 l4079 -1992 c-637,-580 -1050,-1163 -1300,-1772 -265,-644 -346,-1305 -317,-2014 l-4268 1488 c248,499 273,935 16,1192 -261,261 -705,231 -1214,-27 -19,-10 -39,-20 -58,-30 -18,41 -43,79 -77,112 -1193,1193 -2374,2179 -3317,2808 -1079,719 -1934,976 -2310,600 -376,-376 -119,-1231 600,-2310 629,-944 1615,-2124 2808,-3317 31,-31 65,-55 102,-72 -17,-31 -33,-61 -48,-91 -258,-508 -287,-953 -27,-1214 261,-261 705,-231 1214,27 7,4 14,7 22,11 l1474 -4288 z m427 5977 c26,-17 54,-32 85,-42 l4441 -1548 c-270,-435 -500,-876 -650,-1380 -124,-415 -192,-867 -181,-1385 l-4053 3917 c131,147 251,294 358,438 z m-871 -953 l4027 -3892 c-521,-13 -990,-111 -1423,-260 -535,-185 -1004,-445 -1442,-720 l-1531 4455 c-10,29 -23,56 -39,80 135,102 272,215 408,338 z m7714 -5941 c33,-325 -55,-635 -271,-850 -216,-216 -525,-303 -850,-271 -351,35 -718,208 -1020,509 -302,302 -474,670 -509,1020 -33,325 55,635 271,850 216,216 525,303 850,271 351,-35 718,-208 1020,-509 302,-302 474,-670 509,-1020 z m-4444 14353 c15,5 29,11 44,18 l4236 2046 c117,-500 266,-973 516,-1435 206,-382 478,-749 851,-1109 l-5599 -95 c-7,200 -24,393 -47,575 z m36 -1301 l5576 95 c-360,-378 -623,-780 -824,-1192 -246,-506 -393,-1022 -509,-1528 l-4234 2068 c-23,11 -46,20 -70,26 27,167 48,346 61,531 z m9631 1252 c253,-207 410,-487 410,-792 0,-304 -157,-585 -410,-792 -273,-224 -656,-362 -1082,-362 -426,0 -808,138 -1082,362 -253,207 -410,487 -410,792 0,304 157,585 410,792 273,224 656,362 1082,362 426,0 808,-138 1082,-362 z m-13250 7117 l1525 4375 c435,-270 876,-500 1380,-650 415,-124 867,-192 1385,-181 l-3817 -3949 c-157,148 -316,284 -473,405 z m974 -932 l3806 3937 c13,-521 111,-990 260,-1423 185,-535 445,-1004 720,-1442 l-4436 -1525 c-103,148 -220,300 -350,453 z m5854 7624 c325,33 635,-55 850,-271 216,-216 303,-525 271,-850 -35,-351 -208,-718 -509,-1020 -302,-302 -670,-474 -1020,-509 -325,-33 -635,55 -850,271 -216,216 -303,525 -271,850 35,351 208,718 509,1020 302,302 670,474 1020,509 z m-13056 -4188 l-91 5355 c378,-360 780,-623 1192,-824 506,-246 1022,-393 1528,-509 l-2004 -4102 c-194,36 -404,63 -625,79 z m-1397 -43 l-1964 4067 c500,117 973,266 1435,516 382,206 749,478 1109,851 l91 -5376 c-235,-8 -460,-28 -670,-58 z m-7123 -3742 l-4221 1471 c270,435 500,876 650,1380 124,415 192,867 181,1385 l3825 -3697 c-163,-181 -310,-362 -436,-539 z m952 1051 l-3803 3675 c521,13 990,111 1423,260 535,185 1004,445 1442,720 l1458 -4241 c-170,-120 -345,-260 -520,-415 z m-7489 5724 c-33,325 55,635 271,850 216,216 525,303 850,271 351,-35 718,-208 1020,-509 302,-302 474,-670 509,-1020 33,-325 -55,-635 -271,-850 -216,-216 -525,-303 -850,-271 -351,35 -718,208 -1020,509 -302,302 -474,670 -509,1020 z m4238 -14449 l-4073 -1968 c-117,500 -266,973 -516,1435 -206,382 -478,749 -851,1109 l5358 91 c16,-237 44,-461 82,-667 z m-92 1393 l-5313 -90 c360,378 623,780 824,1192 246,506 393,1022 509,1528 l4041 -1974 c-30,-205 -51,-426 -60,-656 z m-9369 -1247 c-253,207 -410,487 -410,792 0,304 157,585 410,792 273,224 656,362 1082,362 426,0 808,-138 1082,-362 253,-207 410,-487 410,-792 0,-304 -157,-585 -410,-792 -273,-224 -656,-362 -1082,-362 -426,0 -808,138 -1082,362 z m13253 -7109 l-1528 -4383 c-435,270 -876,500 -1380,650 -415,124 -867,192 -1385,181 l3800 3931 c166,-143 332,-270 493,-380 z m-1018 882 l-3765 -3895 c-13,521 -111,990 -260,1423 -185,535 -445,1004 -720,1442 l4348 1495 c119,-154 252,-310 397,-465 z m-5813 -7582 c-325,-33 -635,55 -850,271 -216,216 -303,525 -271,850 35,351 208,718 509,1020 302,302 670,474 1020,509 325,33 635,-55 850,-271 216,-216 303,-525 271,-850 -35,-351 -208,-718 -509,-1020 -302,-302 -670,-474 -1020,-509 z m14352 4448 c5,-16 11,-32 19,-47 l2046 -4236 c-500,-117 -973,-266 -1435,-516 -382,-206 -749,-478 -1109,-851 l-95 5582 c201,14 394,38 573,68 z m-1299 -81 l94 -5534 c-378,360 -780,623 -1192,824 -506,246 -1022,393 -1528,509 l2068 4234 c2,4 4,8 5,12 176,-22 361,-37 552,-44 z m1251 -9590 c-207,-253 -487,-410 -792,-410 -304,0 -585,157 -792,410 -224,273 -362,656 -362,1082 0,426 138,808 362,1082 207,253 487,410 792,410 304,0 585,-157 792,-410 224,-273 362,-656 362,-1082 0,-426 -138,-808 -362,-1082 z m5496 14679 c-214,-163 -434,-355 -648,-569 -204,-204 -387,-412 -545,-617 -1153,1155 -2101,2289 -2703,3193 -514,772 -785,1296 -691,1391 94,94 619,-176 1391,-691 904,-603 2040,-1552 3196,-2707 z m1198 -437 c-167,-329 -466,-729 -858,-1120 -392,-392 -791,-691 -1120,-858 -218,-111 -359,-173 -371,-160 -12,12 50,153 160,371 167,329 466,729 858,1120 392,392 791,691 1120,858 218,111 359,173 371,160 12,-12 -50,-153 -160,-371 z m652 6567 c-36,-268 -56,-560 -56,-865 0,-286 18,-561 50,-816 -1633,1 -3106,133 -4171,346 -909,182 -1471,361 -1471,495 0,134 562,313 1471,495 1066,213 2542,345 4177,346 z m1155 535 c115,-352 186,-847 186,-1400 0,-553 -71,-1048 -186,-1400 -76,-231 -131,-375 -148,-375 -17,0 -73,143 -148,375 -115,352 -186,847 -186,1400 0,553 71,1048 186,1400 76,231 131,375 148,375 17,0 73,-143 148,-375 z m-4184 5107 c165,-217 358,-439 574,-655 201,-201 407,-382 609,-539 -1154,-1153 -2289,-2101 -3192,-2703 -772,-514 -1296,-785 -1391,-691 -94,94 176,619 691,1391 603,904 1553,2041 2708,3197 z m442 1191 c329,-167 729,-466 1120,-858 392,-392 691,-791 858,-1120 111,-218 173,-359 160,-371 -12,-12 -153,50 -371,160 -329,167 -729,466 -1120,858 -392,392 -691,791 -858,1120 -111,218 -173,359 -160,371 12,12 153,-50 371,-160 z m-6573 653 c270,-37 564,-57 872,-57 284,0 557,17 810,49 -1,-1630 -133,-3100 -346,-4163 -182,-909 -361,-1471 -495,-1471 -134,0 -313,562 -495,1471 -213,1064 -345,2538 -346,4171 z m-529 1154 c352,115 847,186 1400,186 553,0 1048,-71 1400,-186 231,-76 375,-131 375,-148 0,-17 -143,-73 -375,-148 -352,-115 -847,-186 -1400,-186 -553,0 -1048,71 -1400,186 -231,76 -375,131 -375,148 0,17 143,73 375,148 z m-5107 -4184 c217,165 439,358 655,574 201,201 382,407 539,609 1150,-1152 2095,-2284 2696,-3185 514,-772 785,-1296 691,-1391 -94,-94 -619,176 -1391,691 -902,602 -2037,1549 -3190,2701 z m-1191 442 c167,329 466,729 858,1120 392,392 791,691 1120,858 218,111 359,173 371,160 12,-12 -50,-153 -160,-371 -167,-329 -466,-729 -858,-1120 -392,-392 -791,-691 -1120,-858 -218,-111 -359,-173 -371,-160 -12,12 50,153 160,371 z m-652 -6567 c36,268 56,560 56,865 0,286 -18,561 -50,816 1627,-2 3096,-133 4157,-346 909,-182 1471,-361 1471,-495 0,-134 -562,-313 -1471,-495 -1063,-213 -2534,-344 -4164,-346 z m-1155 -535 c-115,352 -186,847 -186,1400 0,553 71,1048 186,1400 76,231 131,375 148,375 17,0 73,-143 148,-375 115,-352 186,-847 186,-1400 0,-553 -71,-1048 -186,-1400 -76,-231 -131,-375 -148,-375 -17,0 -73,143 -148,375 z m4179 -5100 c-163,214 -355,434 -569,648 -204,204 -412,387 -616,545 1152,1150 2285,2096 3186,2697 772,514 1296,785 1391,691 94,-94 -176,-619 -691,-1391 -602,-902 -1549,-2036 -2700,-3190 z m-437 -1198 c-329,167 -729,466 -1120,858 -392,392 -691,791 -858,1120 -111,218 -173,359 -160,371 12,12 153,-50 371,-160 329,-167 729,-466 1120,-858 392,-392 691,-791 858,-1120 111,-218 173,-359 160,-371 -12,-12 -153,50 -371,160 z m6560 -651 c-266,36 -556,56 -858,56 -289,0 -566,-18 -823,-51 1,1630 133,3102 346,4165 182,909 361,1471 495,1471 134,0 313,-562 495,-1471 213,-1064 345,-2537 346,-4169 z m542 -1156 c-352,-115 -847,-186 -1400,-186 -553,0 -1048,71 -1400,186 -231,76 -375,131 -375,148 0,17 143,73 375,148 352,115 847,186 1400,186 553,0 1048,-71 1400,-186 231,-76 375,-131 375,-148 0,-17 -143,-73 -375,-148 z m10431 33610 l-815 -124 c8,372 46,690 112,930 53,191 94,304 117,308 65,10 202,-209 371,-569 75,-160 148,-343 215,-544 z m-13067 -4656 c1455,97 2892,204 3395,280 l118 18 c-12,-69 -25,-137 -40,-204 -166,-727 -551,-1302 -1064,-1656 -713,-492 -1219,-467 -1577,-145 -376,338 -642,971 -832,1707 z m3120 2408 l190 29 c160,-493 240,-962 252,-1396 l-277 -42 c-736,-112 -3682,-298 -5530,-415 -916,-58 -1573,-100 -1648,-128 -178,-68 -330,-167 -447,-291 -131,-138 -219,-305 -256,-493 -36,-183 -20,-379 56,-579 74,-194 205,-391 404,-579 139,-131 306,-276 475,-424 307,-267 622,-541 776,-743 -19,-7 -39,-14 -59,-20 -365,-108 -844,14 -1309,270 -495,272 -959,689 -1259,1147 -116,178 -207,359 -262,537 -146,991 77,1527 521,1821 497,330 1294,421 2182,487 1746,131 3429,393 5148,660 296,46 592,92 1044,161 z m917 140 l9227 1404 c52,-226 98,-465 136,-713 36,-237 62,-467 80,-689 l-9194 -1399 c-20,442 -100,910 -248,1397 z m8641 -855 l826 126 c-4,-224 -19,-431 -44,-615 -51,-368 -112,-610 -172,-649 l-19 -5 c-27,10 -95,101 -193,252 -140,216 -276,522 -398,892 z m7893 468 c-2174,-397 -4318,-888 -6458,-1406 27,109 49,226 66,349 82,593 68,1387 -62,2243 -130,855 -353,1618 -607,2159 -53,113 -109,218 -168,314 2219,143 4437,315 6660,588 2457,301 4904,725 7337,1368 1129,298 2409,596 3694,813 1726,292 3454,437 4814,237 1258,-186 2182,-669 2433,-1619 15,-57 28,-118 39,-181 8,-63 14,-123 16,-181 43,-982 -696,-1717 -1842,-2269 -1239,-596 -2932,-971 -4667,-1206 -1292,-175 -2604,-271 -3769,-322 -2544,-111 -5030,-439 -7487,-889 z" style="fill-rule:nonzero;"></path>
				</g>
			</g>
		</g>
		<path id="def-2" d="M395.7,507.266 L386.42,487.66 L382.374,492.754 L382.374,507.266 L372.117,507.266 L372.117,456.472 L382.374,456.472 L382.374,478.625 L385.618,473.148 L395.072,456.472 L407.631,456.472 L393.084,478.799 L407.876,507.266 L395.7,507.266 Z M445.755,507.266 L443.034,496.87 L429.045,496.87 L426.324,507.266 L415.474,507.266 L431.347,456.472 L440.732,456.472 L456.71,507.266 L445.755,507.266 Z M436.022,470.217 L431.277,488.323 L440.767,488.323 L436.022,470.217 Z M471.006,456.472 L478.681,479.288 L486.321,456.472 L497.485,456.472 L483.879,488.846 L483.879,507.266 L473.483,507.266 L473.483,488.846 L459.842,456.472 L471.006,456.472 Z M514.782,453.681 L514.782,458.844 L513.77,472.973 L507.351,472.973 L507.351,453.681 L514.782,453.681 Z M549.382,493.94 L549.382,493.94 Q549.382,490.835,547.795,489.248 Q546.207,487.66,542.021,485.951 L542.021,485.951 Q534.381,483.055,531.032,479.165 Q527.683,475.276,527.683,469.973 L527.683,469.973 Q527.683,463.554,532.235,459.664 Q536.788,455.774,543.8,455.774 L543.8,455.774 Q548.475,455.774,552.138,457.745 Q555.801,459.716,557.772,463.31 Q559.743,466.903,559.743,471.473 L559.743,471.473 L549.521,471.473 Q549.521,467.915,548.004,466.048 Q546.486,464.182,543.626,464.182 L543.626,464.182 Q540.939,464.182,539.439,465.769 Q537.939,467.356,537.939,470.043 L537.939,470.043 Q537.939,472.136,539.614,473.828 Q541.288,475.52,545.544,477.334 L545.544,477.334 Q552.975,480.02,556.342,483.927 Q559.708,487.835,559.708,493.87 L559.708,493.87 Q559.708,500.499,555.487,504.231 Q551.266,507.964,544.009,507.964 L544.009,507.964 Q539.09,507.964,535.044,505.941 Q530.997,503.917,528.712,500.15 Q526.427,496.382,526.427,491.254 L526.427,491.254 L536.718,491.254 Q536.718,495.649,538.428,497.638 Q540.137,499.626,544.009,499.626 L544.009,499.626 Q549.382,499.626,549.382,493.94 Z M621.443,490.347 L631.7,490.347 Q631.316,499.033,626.816,503.499 Q622.315,507.964,614.117,507.964 L614.117,507.964 Q605.5,507.964,600.913,502.295 Q596.325,496.626,596.325,486.125 L596.325,486.125 L596.325,477.578 Q596.325,467.112,601.07,461.443 Q605.814,455.774,614.257,455.774 L614.257,455.774 Q622.56,455.774,626.868,460.414 Q631.177,465.054,631.77,473.741 L631.77,473.741 L621.478,473.741 Q621.339,468.368,619.821,466.327 Q618.303,464.286,614.257,464.286 L614.257,464.286 Q610.14,464.286,608.431,467.165 Q606.721,470.043,606.616,476.636 L606.616,476.636 L606.616,486.23 Q606.616,493.8,608.308,496.626 Q610,499.452,614.117,499.452 L614.117,499.452 Q618.164,499.452,619.699,497.481 Q621.234,495.51,621.443,490.347 L621.443,490.347 Z M668.184,507.266 L660.544,488.707 L655.45,488.707 L655.45,507.266 L645.194,507.266 L645.194,456.472 L661.556,456.472 Q669.265,456.472,673.469,460.466 Q677.673,464.461,677.673,471.822 L677.673,471.822 Q677.673,481.939,670.312,485.986 L670.312,485.986 L679.208,506.778 L679.208,507.266 L668.184,507.266 Z M655.45,465.019 L655.45,480.16 L661.277,480.16 Q664.347,480.16,665.882,478.119 Q667.417,476.078,667.417,472.659 L667.417,472.659 Q667.417,465.019,661.451,465.019 L661.451,465.019 L655.45,465.019 Z M727.623,477.753 L727.623,486.439 Q727.623,496.661,722.792,502.313 Q717.96,507.964,709.378,507.964 L709.378,507.964 Q700.831,507.964,695.947,502.365 Q691.063,496.766,690.993,486.683 L690.993,486.683 L690.993,477.997 Q690.993,467.531,695.842,461.652 Q700.691,455.774,709.308,455.774 L709.308,455.774 Q717.786,455.774,722.67,461.548 Q727.554,467.322,727.623,477.753 L727.623,477.753 Z M717.332,486.753 L717.332,477.927 Q717.332,471.054,715.378,467.705 Q713.425,464.356,709.308,464.356 L709.308,464.356 Q705.226,464.356,703.273,467.583 Q701.319,470.81,701.249,477.404 L701.249,477.404 L701.249,486.439 Q701.249,493.103,703.238,496.26 Q705.226,499.417,709.378,499.417 L709.378,499.417 Q713.39,499.417,715.343,496.33 Q717.297,493.242,717.332,486.753 L717.332,486.753 Z M766.306,490.347 L776.562,490.347 Q776.178,499.033,771.678,503.499 Q767.178,507.964,758.979,507.964 L758.979,507.964 Q750.362,507.964,745.775,502.295 Q741.187,496.626,741.187,486.125 L741.187,486.125 L741.187,477.578 Q741.187,467.112,745.932,461.443 Q750.676,455.774,759.119,455.774 L759.119,455.774 Q767.422,455.774,771.73,460.414 Q776.039,465.054,776.632,473.741 L776.632,473.741 L766.34,473.741 Q766.201,468.368,764.683,466.327 Q763.166,464.286,759.119,464.286 L759.119,464.286 Q755.002,464.286,753.293,467.165 Q751.583,470.043,751.479,476.636 L751.479,476.636 L751.479,486.23 Q751.479,493.8,753.171,496.626 Q754.863,499.452,758.979,499.452 L758.979,499.452 Q763.026,499.452,764.561,497.481 Q766.096,495.51,766.306,490.347 L766.306,490.347 Z M825.64,456.472 L825.64,507.266 L815.419,507.266 L815.419,485.532 L800.278,485.532 L800.278,507.266 L790.021,507.266 L790.021,456.472 L800.278,456.472 L800.278,477.02 L815.419,477.02 L815.419,456.472 L825.64,456.472 Z M867.253,477.02 L867.253,485.288 L851.275,485.288 L851.275,498.754 L870.183,498.754 L870.183,507.266 L841.018,507.266 L841.018,456.472 L870.114,456.472 L870.114,465.019 L851.275,465.019 L851.275,477.02 L867.253,477.02 Z M916.819,456.472 L916.819,465.019 L904.26,465.019 L904.26,507.266 L893.969,507.266 L893.969,465.019 L881.619,465.019 L881.619,456.472 L916.819,456.472 Z M950.757,493.94 L950.757,493.94 Q950.757,490.835,949.17,489.248 Q947.582,487.66,943.396,485.951 L943.396,485.951 Q935.756,483.055,932.407,479.165 Q929.058,475.276,929.058,469.973 L929.058,469.973 Q929.058,463.554,933.61,459.664 Q938.163,455.774,945.175,455.774 L945.175,455.774 Q949.85,455.774,953.513,457.745 Q957.176,459.716,959.147,463.31 Q961.118,466.903,961.118,471.473 L961.118,471.473 L950.896,471.473 Q950.896,467.915,949.379,466.048 Q947.861,464.182,945.001,464.182 L945.001,464.182 Q942.314,464.182,940.814,465.769 Q939.314,467.356,939.314,470.043 L939.314,470.043 Q939.314,472.136,940.989,473.828 Q942.663,475.52,946.919,477.334 L946.919,477.334 Q954.35,480.02,957.717,483.927 Q961.083,487.835,961.083,493.87 L961.083,493.87 Q961.083,500.499,956.862,504.231 Q952.641,507.964,945.384,507.964 L945.384,507.964 Q940.465,507.964,936.419,505.941 Q932.372,503.917,930.087,500.15 Q927.802,496.382,927.802,491.254 L927.802,491.254 L938.093,491.254 Q938.093,495.649,939.803,497.638 Q941.512,499.626,945.384,499.626 L945.384,499.626 Q950.757,499.626,950.757,493.94 Z"></path>
		<path id="def-3" d="M379.879,527.608 C374.849,527.608,372.02,530.98,372.02,536.982 C372.02,542.898,374.735,546.184,379.536,546.184 C381.365,546.184,383.137,545.613,384.737,544.555 L384.852,543.155 L384.623,543.069 C383.165,544.212,381.394,544.87,379.622,544.87 C375.735,544.87,373.534,542.097,373.534,536.896 C373.534,531.695,375.763,528.894,379.822,528.894 C381.536,528.894,383.08,529.494,384.337,530.494 L384.566,530.466 L384.88,529.123 C383.508,528.151,381.736,527.608,379.879,527.608 Z M396.883,538.525 C399.427,537.525,400.856,535.496,400.856,532.838 C400.856,529.523,398.912,527.722,395.454,527.722 L390.596,527.751 L390.682,540.468 L390.596,546.013 L392.082,546.013 L392.025,540.383 L392.025,538.868 L395.626,538.868 C397.055,541.326,398.655,543.755,400.313,546.127 L400.541,546.241 C400.999,546.156,401.399,546.07,401.827,545.87 L401.827,545.67 C400.056,543.326,398.398,540.954,396.883,538.525 Z M392.111,529.037 L395.283,528.98 C397.884,529.037,399.341,530.351,399.341,532.924 C399.341,535.381,398.084,536.982,395.769,537.611 L392.053,537.553 Z M414.002,527.579 C408.886,527.579,406.029,530.952,406.029,536.982 C406.029,542.869,408.744,546.184,413.602,546.184 C418.746,546.184,421.633,542.755,421.633,536.553 C421.633,530.809,418.918,527.579,414.002,527.579 Z M413.916,528.837 C417.975,528.837,420.118,531.523,420.118,536.782 C420.118,542.183,417.889,544.984,413.716,544.984 C409.658,544.984,407.515,542.212,407.515,536.839 C407.515,531.58,409.744,528.837,413.916,528.837 Z M433.922,527.608 C428.892,527.608,426.062,530.98,426.062,536.982 C426.062,542.898,428.777,546.184,433.579,546.184 C435.408,546.184,437.18,545.613,438.78,544.555 L438.894,543.155 L438.666,543.069 C437.208,544.212,435.436,544.87,433.664,544.87 C429.778,544.87,427.577,542.097,427.577,536.896 C427.577,531.695,429.806,528.894,433.864,528.894 C435.579,528.894,437.122,529.494,438.38,530.494 L438.609,530.466 L438.923,529.123 C437.551,528.151,435.779,527.608,433.922,527.608 Z M458.214,527.751 L456.728,527.751 L456.756,536.124 L446.096,536.124 L446.125,527.751 L444.639,527.751 L444.696,540.468 L444.639,546.013 L446.125,546.013 L446.068,540.383 L446.068,537.41 L456.785,537.41 L456.785,540.468 L456.728,546.013 L458.185,546.013 L458.157,540.383 Z M475.647,544.67 L471.16,544.755 L467.473,544.727 L467.416,540.383 L467.445,537.239 L474.046,537.268 L474.189,536.096 L474.075,535.953 L471.017,535.982 L467.445,535.953 L467.502,529.065 L471.274,529.037 L475.533,529.094 L475.704,527.922 L475.59,527.751 L465.987,527.751 L466.073,540.468 L465.987,546.013 L475.618,546.013 L475.761,544.841 Z M491.48,527.751 L479.362,527.751 L479.219,528.894 L479.334,529.065 L482.449,528.98 L484.678,528.98 L484.764,540.468 L484.678,546.013 L486.164,546.013 L486.107,540.383 L486.193,528.98 L488.422,528.98 L491.48,529.065 L491.623,527.922 Z M498.71,527.751 L497.195,527.751 L497.281,540.468 L497.195,546.013 L498.682,546.013 L498.624,540.383 Z M520.059,527.722 L518.658,527.837 L518.63,543.526 L518.487,543.526 L508.055,527.751 L506.512,527.751 L506.541,540.583 L506.484,546.013 L507.855,546.013 L507.827,540.154 L507.855,530.237 L507.998,530.237 L518.458,546.013 L519.973,546.013 L519.973,540.811 Z M534.291,527.608 C528.747,527.608,525.603,530.98,525.603,537.153 C525.603,542.898,528.232,546.184,533.434,546.184 C535.348,546.156,536.92,545.87,539.435,545.155 L539.378,541.297 L539.407,538.725 L537.978,538.839 L538.006,541.469 L537.978,544.127 C535.948,544.698,534.891,544.87,533.462,544.87 C529.29,544.87,527.118,542.297,527.118,537.096 C527.118,531.666,529.575,528.894,534.119,528.894 C535.72,528.894,537.263,529.408,538.978,530.437 L539.206,530.409 L539.549,529.037 C537.806,528.065,536.034,527.608,534.291,527.608 Z M558.269,539.211 L564.556,527.751 L562.927,527.751 L562.555,528.665 L557.697,537.496 L557.526,537.496 L553.067,528.637 L552.724,527.751 L551.067,527.751 L556.84,539.268 L556.868,540.554 L556.811,546.013 L558.297,546.013 L558.24,540.554 Z M575.416,527.579 C570.3,527.579,567.442,530.952,567.442,536.982 C567.442,542.869,570.157,546.184,575.016,546.184 C580.16,546.184,583.047,542.755,583.047,536.553 C583.047,530.809,580.332,527.579,575.416,527.579 Z M575.33,528.837 C579.388,528.837,581.532,531.523,581.532,536.782 C581.532,542.183,579.303,544.984,575.13,544.984 C571.072,544.984,568.929,542.212,568.929,536.839 C568.929,531.58,571.158,528.837,575.33,528.837 Z M601.68,527.751 L600.194,527.751 L600.251,539.382 C600.28,542.955,598.451,544.841,595.078,544.841 C591.706,544.841,589.905,542.898,589.934,539.24 L589.991,527.751 L588.534,527.751 L588.534,539.382 C588.477,543.755,590.791,546.156,594.993,546.156 C599.279,546.156,601.737,543.641,601.651,539.268 L601.651,537.068 Z M615.112,538.525 C617.656,537.525,619.085,535.496,619.085,532.838 C619.085,529.523,617.141,527.722,613.683,527.722 L608.825,527.751 L608.91,540.468 L608.825,546.013 L610.311,546.013 L610.254,540.383 L610.254,538.868 L613.855,538.868 C615.284,541.326,616.884,543.755,618.542,546.127 L618.77,546.241 C619.227,546.156,619.628,546.07,620.056,545.87 L620.056,545.67 C618.284,543.326,616.627,540.954,615.112,538.525 Z M610.339,529.037 L613.512,528.98 C616.112,529.037,617.57,530.351,617.57,532.924 C617.57,535.381,616.312,536.982,613.998,537.611 L610.282,537.553 Z M639.318,527.636 L633.117,527.751 L633.203,540.468 L633.117,546.013 C634.546,546.07,637.947,546.156,638.833,546.156 C644.32,546.156,647.349,542.64,647.349,536.267 C647.349,530.694,644.491,527.636,639.318,527.636 Z M639.033,544.898 C638.404,544.898,635.918,544.812,634.603,544.727 L634.546,540.383 L634.632,529.037 C635.803,528.98,638.633,528.894,639.233,528.894 C643.52,528.894,645.834,531.495,645.834,536.525 C645.834,542.012,643.377,544.898,639.033,544.898 Z M659.752,538.525 C662.296,537.525,663.725,535.496,663.725,532.838 C663.725,529.523,661.782,527.722,658.323,527.722 L653.465,527.751 L653.551,540.468 L653.465,546.013 L654.951,546.013 L654.894,540.383 L654.894,538.868 L658.495,538.868 C659.924,541.326,661.524,543.755,663.182,546.127 L663.411,546.241 C663.868,546.156,664.268,546.07,664.697,545.87 L664.697,545.67 C662.925,543.326,661.267,540.954,659.752,538.525 Z M654.98,529.037 L658.152,528.98 C660.753,529.037,662.21,530.351,662.21,532.924 C662.21,535.381,660.953,536.982,658.638,537.611 L654.923,537.553 Z M680.501,544.67 L676.014,544.755 L672.327,544.727 L672.27,540.383 L672.299,537.239 L678.9,537.268 L679.043,536.096 L678.929,535.953 L675.871,535.982 L672.299,535.953 L672.356,529.065 L676.128,529.037 L680.386,529.094 L680.558,527.922 L680.444,527.751 L670.841,527.751 L670.927,540.468 L670.841,546.013 L680.472,546.013 L680.615,544.841 Z M692.475,527.751 L690.789,527.751 L683.816,546.013 L685.359,546.013 L685.788,544.412 L687.274,540.526 L691.189,540.468 L695.533,540.526 L696.905,544.469 L697.305,546.013 L698.848,546.013 Z M691.361,539.24 L687.788,539.211 L691.504,529.466 L691.675,529.466 L695.076,539.211 Z M720.197,527.751 L718.511,527.751 L717.539,530.323 L712.795,541.84 L712.652,541.84 L708.165,530.552 L707.136,527.751 L705.45,527.751 L703.478,546.013 L704.793,546.013 L705.336,540.354 L706.45,530.323 L706.622,530.323 L711.995,543.812 L713.338,543.812 L718.911,530.323 L719.082,530.323 L720.197,540.44 L720.683,546.013 L722.055,546.013 Z M733.343,527.636 C730.028,527.636,727.77,529.78,727.77,532.438 C727.77,537.696,736.258,537.068,736.258,541.326 C736.258,543.126,734.686,544.927,732.086,544.927 C730.743,544.927,729.028,544.412,727.713,543.269 L727.513,543.355 L727.342,544.87 C728.713,545.727,730.457,546.156,731.971,546.156 C735.401,546.156,737.744,543.869,737.744,541.154 C737.744,535.867,729.228,536.382,729.228,532.323 C729.228,530.723,730.628,528.894,733.172,528.894 C734.229,528.894,735.487,529.237,736.601,529.951 L736.887,529.866 L737.144,528.494 C735.687,527.837,734.343,527.636,733.343,527.636 Z M745.518,527.236 L744.403,527.294 L744.232,527.465 L744.146,539.925 L744.318,540.125 L745.261,540.04 L745.689,527.408 Z M744.46,544.155 C743.86,544.155,743.489,544.555,743.489,545.155 C743.489,545.756,743.832,546.098,744.432,546.098 C745.032,546.098,745.404,545.727,745.404,545.098 C745.404,544.527,745.061,544.155,744.46,544.155 Z"></path>
		<linearGradient id="gradient-1" gradientUnits="objectBoundingBox" x1="0.854" y1="0.146" x2="0.146" y2="0.854">
			<stop offset="0" stop-color="#ff8d8d" stop-opacity="1"></stop>
			<stop offset="0.25" stop-color="#ff7b87" stop-opacity="1"></stop>
			<stop offset="0.5" stop-color="#ff647e" stop-opacity="1"></stop>
			<stop offset="0.75" stop-color="#f04c76" stop-opacity="1"></stop>
			<stop offset="1" stop-color="#e23673" stop-opacity="1"></stop>
		</linearGradient>
		<mask id="mask-1" x="25.557" y="353.429" width="954.32" height="293.142" maskUnits="userSpaceOnUse" stroke-width="0">
			<rect x="38.882" y="366.754" width="927.671" height="266.492" fill="#000"></rect>
			<use xlink:href="#def-1" fill="#fff" stroke="#fff"></use>
			<use xlink:href="#def-2" fill="#fff" stroke="#fff"></use>
			<use xlink:href="#def-3" fill="#fff" stroke="#fff"></use>
		</mask>
	</defs>
	<rect id="background-1" x="-388.889" y="0" width="1777.778" height="1000" fill="#30044b"></rect>
	<g mask="url(#mask-1)">
		<rect x="38.882" y="366.754" width="927.671" height="266.492" fill="url(#gradient-1)"></rect>
	</g>
</svg>
